<svg xmlns="http://www.w3.org/2000/svg" viewBox="0 0 26 26">
<style>.c{stroke:#111}.g{fill:#111}@media (prefers-color-scheme: dark){.c{stroke:#fff}.g{fill:#fff}}</style>
<rect class="c" x="1" y="1" width="24" height="24" stroke-width="2" fill="none"/>
<path class="g" transform="translate(13.0 13.0) scale(0.01806 -0.01806) translate(-314.50 -350.00)" d="M311 -10Q229 -10 154.0 13.5Q79 37 35 74L80 175Q122 142 184.0 120.0Q246 98 311 98Q366 98 400.0 110.0Q434 122 450.0 142.5Q466 163 466 189Q466 221 443.0 240.5Q420 260 383.5 271.5Q347 283 302.5 293.0Q258 303 213.5 316.5Q169 330 132.5 351.5Q96 373 73.0 409.0Q50 445 50 501Q50 558 80.5 605.5Q111 653 173.5 681.5Q236 710 332 710Q395 710 457.0 694.0Q519 678 565 648L524 547Q477 575 427.0 588.5Q377 602 331 602Q277 602 243.5 589.0Q210 576 194.5 555.0Q179 534 179 507Q179 475 201.5 455.5Q224 436 260.5 425.0Q297 414 342.0 403.5Q387 393 431.5 380.0Q476 367 512.5 346.0Q549 325 571.5 289.0Q594 253 594 198Q594 142 563.5 94.5Q533 47 470.0 18.5Q407 -10 311 -10Z"/>
</svg>
